<?xml version="1.0" standalone="no"?>
<!DOCTYPE svg PUBLIC "-//W3C//DTD SVG 20010904//EN"
 "http://www.w3.org/TR/2001/REC-SVG-20010904/DTD/svg10.dtd">
<svg version="1.0" xmlns="http://www.w3.org/2000/svg"
 width="200" height="72" viewBox="0 0 200.000000 72.000000"
 preserveAspectRatio="xMidYMid meet">

<g transform="translate(0.000000,72.000000) scale(0.100000,-0.100000)"
fill="#000000" stroke="none">
<path d="M345 600 c-3 -5 -1 -10 4 -10 6 0 11 5 11 10 0 6 -2 10 -4 10 -3 0
-8 -4 -11 -10z"/>
<path d="M270 580 c0 -5 5 -10 10 -10 6 0 10 5 10 10 0 6 -4 10 -10 10 -5 0
-10 -4 -10 -10z"/>
<path d="M390 580 c0 -5 5 -10 10 -10 6 0 10 5 10 10 0 6 -4 10 -10 10 -5 0
-10 -4 -10 -10z"/>
<path d="M316 573 c-11 -11 -6 -23 9 -23 8 0 15 4 15 9 0 13 -16 22 -24 14z"/>
<path d="M205 560 c-3 -5 -1 -10 4 -10 6 0 11 5 11 10 0 6 -2 10 -4 10 -3 0
-8 -4 -11 -10z"/>
<path d="M357 554 c-13 -13 -7 -24 14 -24 11 0 19 5 17 12 -5 14 -22 21 -31
12z"/>
<path d="M435 550 c3 -5 10 -10 16 -10 5 0 9 5 9 10 0 6 -7 10 -16 10 -8 0
-12 -4 -9 -10z"/>
<path d="M240 540 c0 -5 5 -10 10 -10 6 0 10 5 10 10 0 6 -4 10 -10 10 -5 0
-10 -4 -10 -10z"/>
<path d="M274 529 c-3 -6 -2 -15 2 -19 12 -12 38 5 30 19 -9 14 -23 14 -32 0z"/>
<path d="M486 532 c-3 -6 -1 -14 5 -17 15 -10 25 3 12 16 -7 7 -13 7 -17 1z"/>
<path d="M176 521 c-4 -5 -2 -12 3 -15 5 -4 12 -2 15 3 4 5 2 12 -3 15 -5 4
-12 2 -15 -3z"/>
<path d="M400 515 c0 -8 9 -15 20 -15 11 0 20 7 20 15 0 8 -9 15 -20 15 -11 0
-20 -7 -20 -15z"/>
<path d="M315 510 c-4 -7 -3 -16 3 -22 14 -14 45 -2 40 15 -6 16 -34 21 -43 7z"/>
<path d="M207 503 c-12 -11 -8 -23 8 -23 8 0 15 7 15 15 0 16 -12 20 -23 8z"/>
<path d="M125 490 c-3 -5 -1 -10 4 -10 6 0 11 5 11 10 0 6 -2 10 -4 10 -3 0
-8 -4 -11 -10z"/>
<path d="M253 493 c-15 -5 -17 -29 -4 -37 12 -8 31 17 23 30 -4 6 -13 9 -19 7z"/>
<path d="M454 489 c-8 -14 18 -31 30 -19 9 9 0 30 -14 30 -5 0 -12 -5 -16 -11z"/>
<path d="M530 490 c0 -5 7 -10 16 -10 8 0 12 5 9 10 -3 6 -10 10 -16 10 -5 0
-9 -4 -9 -10z"/>
<path d="M365 480 c-9 -15 4 -30 26 -30 12 0 19 7 19 20 0 21 -33 29 -45 10z"/>
<path d="M150 470 c0 -5 5 -10 10 -10 6 0 10 5 10 10 0 6 -4 10 -10 10 -5 0
-10 -4 -10 -10z"/>
<path d="M292 471 c-8 -4 -15 -17 -16 -27 -4 -23 -36 -32 -36 -10 0 19 -11 21
-28 4 -9 -9 -12 -7 -12 10 0 24 -16 30 -23 10 -4 -14 37 -58 54 -58 5 0 9 -7
9 -15 0 -20 -10 -19 -25 2 -13 18 -35 10 -35 -12 0 -8 9 -19 20 -25 24 -13 26
-30 5 -30 -8 0 -15 7 -15 15 0 18 -16 20 -26 4 -4 -7 3 -20 17 -29 19 -15 21
-21 10 -34 -13 -15 -8 -36 10 -36 5 0 9 7 9 15 0 8 4 15 9 15 15 0 23 -18 11
-25 -18 -11 -11 -35 11 -35 15 0 19 5 15 15 -3 9 0 15 8 15 8 0 16 -7 20 -15
3 -9 0 -15 -10 -15 -20 0 -12 -24 9 -28 10 -2 17 3 17 12 0 20 26 21 34 1 3
-9 0 -15 -9 -15 -17 0 -20 -16 -5 -25 12 -8 60 34 60 53 0 15 15 15 40 0 15
-9 22 -10 31 -1 14 14 2 36 -17 29 -8 -3 -14 1 -14 9 0 23 20 28 35 9 11 -16
15 -16 29 -5 19 16 4 43 -20 34 -9 -3 -14 2 -14 16 0 12 6 21 14 21 20 0 29
31 13 47 -12 12 -16 12 -30 -2 -9 -8 -14 -22 -11 -30 4 -10 0 -15 -15 -15 -27
0 -27 21 -1 38 11 7 20 19 20 27 0 16 -29 34 -46 28 -6 -2 -14 5 -17 17 -3 11
-13 20 -23 20 -9 0 -25 7 -33 14 -10 9 -22 12 -29 7z m28 -56 c0 -8 -7 -15
-15 -15 -26 0 -18 20 13 29 1 1 2 -6 2 -14z m58 -43 c3 -9 -2 -13 -14 -10 -9
1 -19 9 -22 16 -3 9 2 13 14 10 9 -1 19 -9 22 -16z m-98 -17 c0 -8 -4 -15 -10
-15 -5 0 -10 7 -10 15 0 8 5 15 10 15 6 0 10 -7 10 -15z m-31 -64 c-15 -5 -22
6 -14 19 6 9 10 9 16 -1 5 -8 4 -15 -2 -18z m140 -20 c-15 -5 -22 6 -14 19 6
9 10 9 16 -1 5 -8 4 -15 -2 -18z m-88 -4 c-1 -12 -15 -9 -19 4 -3 6 1 10 8 8
6 -3 11 -8 11 -12z m63 -32 c4 -10 -1 -15 -14 -15 -20 0 -26 11 -13 23 10 11
20 8 27 -8z"/>
<path d="M505 460 c-10 -17 12 -37 25 -24 8 8 6 15 -4 23 -10 9 -16 9 -21 1z"/>
<path d="M897 463 c-4 -3 -7 -48 -7 -100 0 -76 3 -93 15 -93 12 0 15 15 15 73
l0 72 71 -72 c39 -40 78 -73 86 -73 11 0 13 18 11 95 -3 111 -23 132 -23 25 0
-39 -3 -70 -7 -70 -4 0 -37 34 -74 75 -67 75 -75 81 -87 68z"/>
<path d="M1187 463 c-4 -3 -7 -48 -7 -100 l0 -93 76 0 c56 0 75 3 72 13 -3 7
-27 13 -62 15 -56 3 -57 4 -54 30 3 25 7 27 56 30 79 5 64 32 -19 32 -35 0
-39 3 -39 25 0 24 3 25 60 25 47 0 60 3 60 15 0 12 -14 15 -68 15 -38 0 -72
-3 -75 -7z"/>
<path d="M1400 460 c0 -28 64 -190 75 -190 7 0 23 25 35 55 12 30 26 55 30 55
5 0 18 -25 31 -55 12 -30 28 -55 34 -55 6 0 26 37 43 83 38 102 40 108 26 114
-7 2 -24 -29 -40 -74 l-28 -78 -25 58 c-14 31 -31 57 -39 57 -7 0 -25 -26 -39
-57 l-25 -58 -27 74 c-15 41 -32 76 -39 79 -7 2 -12 -1 -12 -8z"/>
<path d="M1782 458 c-30 -15 -39 -54 -17 -78 9 -10 34 -21 55 -25 21 -4 46
-13 57 -21 17 -14 17 -14 -1 -29 -25 -19 -66 -19 -94 1 -12 8 -27 12 -33 9
-15 -10 7 -32 47 -45 63 -21 135 21 119 69 -6 19 -31 31 -95 48 -25 6 -35 14
-35 28 0 16 8 21 38 23 21 2 45 -2 53 -9 10 -8 18 -9 25 -2 15 15 -28 43 -66
42 -16 0 -40 -5 -53 -11z"/>
<path d="M420 440 c0 -23 26 -38 41 -23 14 14 0 43 -22 43 -12 0 -19 -7 -19
-20z"/>
<path d="M575 450 c3 -5 8 -10 11 -10 2 0 4 5 4 10 0 6 -5 10 -11 10 -5 0 -7
-4 -4 -10z"/>
<path d="M131 424 c0 -11 3 -14 6 -6 3 7 2 16 -1 19 -3 4 -6 -2 -5 -13z"/>
<path d="M550 416 c0 -9 7 -16 16 -16 17 0 14 22 -4 28 -7 2 -12 -3 -12 -12z"/>
<path d="M155 410 c-4 -6 -3 -16 3 -22 6 -6 12 -6 17 2 4 6 3 16 -3 22 -6 6
-12 6 -17 -2z"/>
<path d="M472 403 c5 -26 38 -29 38 -4 0 15 -6 21 -21 21 -14 0 -19 -5 -17
-17z"/>
<path d="M590 380 c0 -5 5 -10 10 -10 6 0 10 5 10 10 0 6 -4 10 -10 10 -5 0
-10 -4 -10 -10z"/>
<path d="M522 364 c4 -21 22 -23 26 -1 2 10 -3 17 -13 17 -10 0 -15 -6 -13
-16z"/>
<path d="M132 361 c4 -13 18 -16 19 -4 0 4 -5 9 -11 12 -7 2 -11 -2 -8 -8z"/>
<path d="M565 339 c-10 -15 3 -25 16 -12 7 7 7 13 1 17 -6 3 -14 1 -17 -5z"/>
<path d="M497 334 c-15 -15 -7 -45 11 -42 9 2 17 12 17 22 0 20 -16 31 -28 20z"/>
<path d="M120 316 c0 -9 5 -16 10 -16 6 0 10 4 10 9 0 6 -4 13 -10 16 -5 3
-10 -1 -10 -9z"/>
<path d="M150 285 c0 -8 5 -15 10 -15 6 0 10 7 10 15 0 8 -4 15 -10 15 -5 0
-10 -7 -10 -15z"/>
<path d="M537 293 c-12 -11 -8 -23 8 -23 8 0 15 7 15 15 0 16 -12 20 -23 8z"/>
<path d="M570 260 c0 -5 5 -10 10 -10 6 0 10 5 10 10 0 6 -4 10 -10 10 -5 0
-10 -4 -10 -10z"/>
<path d="M140 250 c0 -5 5 -10 10 -10 6 0 10 5 10 10 0 6 -4 10 -10 10 -5 0
-10 -4 -10 -10z"/>
<path d="M500 234 c0 -17 22 -14 28 4 2 7 -3 12 -12 12 -9 0 -16 -7 -16 -16z"/>
<path d="M170 220 c0 -5 7 -10 16 -10 8 0 12 5 9 10 -3 6 -10 10 -16 10 -5 0
-9 -4 -9 -10z"/>
<path d="M540 220 c0 -5 5 -10 10 -10 6 0 10 5 10 10 0 6 -4 10 -10 10 -5 0
-10 -4 -10 -10z"/>
<path d="M465 201 c-7 -12 12 -24 25 -16 11 7 4 25 -10 25 -5 0 -11 -4 -15 -9z"/>
<path d="M160 190 c0 -5 5 -10 10 -10 6 0 10 5 10 10 0 6 -4 10 -10 10 -5 0
-10 -4 -10 -10z"/>
<path d="M210 190 c0 -5 7 -10 16 -10 8 0 12 5 9 10 -3 6 -10 10 -16 10 -5 0
-9 -4 -9 -10z"/>
<path d="M382 178 c7 -19 38 -22 38 -4 0 10 -9 16 -21 16 -12 0 -19 -5 -17
-12z"/>
<path d="M505 180 c-3 -5 1 -10 9 -10 9 0 16 5 16 10 0 6 -4 10 -9 10 -6 0
-13 -4 -16 -10z"/>
<path d="M250 172 c0 -6 -3 -17 -6 -26 -3 -9 -1 -16 6 -16 6 0 8 5 5 10 -3 6
1 10 10 10 9 0 15 5 13 12 -5 15 -28 23 -28 10z"/>
<path d="M200 159 c0 -5 5 -7 10 -4 6 3 10 8 10 11 0 2 -4 4 -10 4 -5 0 -10
-5 -10 -11z"/>
<path d="M430 160 c0 -5 7 -10 15 -10 8 0 15 5 15 10 0 6 -7 10 -15 10 -8 0
-15 -4 -15 -10z"/>
<path d="M362 148 c6 -18 28 -21 28 -4 0 9 -7 16 -16 16 -9 0 -14 -5 -12 -12z"/>
<path d="M290 140 c0 -5 7 -10 15 -10 8 0 15 5 15 10 0 6 -7 10 -15 10 -8 0
-15 -4 -15 -10z"/>
<path d="M405 130 c-3 -5 1 -10 9 -10 9 0 16 5 16 10 0 6 -4 10 -9 10 -6 0
-13 -4 -16 -10z"/>
<path d="M340 120 c0 -5 5 -10 10 -10 6 0 10 5 10 10 0 6 -4 10 -10 10 -5 0
-10 -4 -10 -10z"/>
<path d="M380 99 c0 -5 5 -7 10 -4 6 3 10 8 10 11 0 2 -4 4 -10 4 -5 0 -10 -5
-10 -11z"/>
</g>
</svg>
